<svg width="1200" height="630" viewBox="0 0 1200 630" fill="none" xmlns="http://www.w3.org/2000/svg">
  <rect width="1200" height="630" fill="#080B14"/>
  <rect x="28" y="28" width="1144" height="574" rx="32" fill="url(#paint0_linear)"/>
  <rect x="64" y="64" width="1072" height="502" rx="28" fill="#0F1220" stroke="rgba(255,255,255,0.08)"/>
  <rect x="104" y="116" width="220" height="18" rx="9" fill="#4F46E5"/>
  <rect x="104" y="154" width="340" height="18" rx="9" fill="#C7D2FE" fill-opacity="0.9"/>
  <rect x="104" y="192" width="304" height="18" rx="9" fill="#C7D2FE" fill-opacity="0.35"/>
  <rect x="104" y="258" width="344" height="220" rx="24" fill="#131935" stroke="#2A335A"/>
  <rect x="484" y="214" width="246" height="156" rx="24" fill="#151B3D" stroke="#33406F"/>
  <rect x="764" y="118" width="312" height="188" rx="24" fill="#131935" stroke="#2A335A"/>
  <rect x="784" y="146" width="116" height="12" rx="6" fill="#818CF8"/>
  <rect x="784" y="174" width="198" height="12" rx="6" fill="#E0E7FF" fill-opacity="0.9"/>
  <rect x="784" y="198" width="170" height="12" rx="6" fill="#E0E7FF" fill-opacity="0.35"/>
  <rect x="520" y="246" width="64" height="64" rx="18" fill="#4F46E5"/>
  <rect x="604" y="246" width="92" height="16" rx="8" fill="#EEF2FF"/>
  <rect x="604" y="278" width="74" height="14" rx="7" fill="#A5B4FC"/>
  <rect x="604" y="305" width="54" height="14" rx="7" fill="#A5B4FC" fill-opacity="0.45"/>
  <path d="M448 332C472 332 484 332 502 306" stroke="#6366F1" stroke-width="6" stroke-linecap="round"/>
  <path d="M730 278C752 278 760 270 776 226" stroke="#6366F1" stroke-width="6" stroke-linecap="round"/>
  <path d="M448 404C522 404 574 430 632 494" stroke="#818CF8" stroke-width="6" stroke-linecap="round"/>
  <rect x="716" y="392" width="320" height="118" rx="24" fill="#151B3D" stroke="#33406F"/>
  <rect x="748" y="428" width="162" height="14" rx="7" fill="#EEF2FF"/>
  <rect x="748" y="454" width="222" height="14" rx="7" fill="#A5B4FC"/>
  <rect x="748" y="480" width="124" height="14" rx="7" fill="#A5B4FC" fill-opacity="0.45"/>
  <circle cx="172" cy="302" r="28" fill="#6366F1"/>
  <circle cx="398" cy="442" r="16" fill="#A5B4FC"/>
  <circle cx="754" cy="226" r="16" fill="#6366F1"/>
  <circle cx="690" cy="494" r="18" fill="#818CF8"/>
  <text x="104" y="420" fill="#FFFFFF" font-family="Inter, Arial, sans-serif" font-size="68" font-weight="700" letter-spacing="-2">
    CastCanvas Lab
  </text>
  <text x="104" y="472" fill="#C4CAD9" font-family="Inter, Arial, sans-serif" font-size="28" font-weight="500">
    Spatial research workspace for documents, images, and connected ideas.
  </text>
  <defs>
    <linearGradient id="paint0_linear" x1="80" y1="48" x2="1112" y2="570" gradientUnits="userSpaceOnUse">
      <stop stop-color="#151B3D"/>
      <stop offset="1" stop-color="#0B1022"/>
    </linearGradient>
  </defs>
</svg>
